<svg width="1440" height="813" viewBox="0 0 1440 813" fill="none" xmlns="http://www.w3.org/2000/svg">
<rect width="1440" height="813" fill="#E5E5E5"/>
<path d="M0 0H1440V810H0V0Z" fill="#D2E6F2"/>
<g opacity="0.5">
<rect width="100" height="100" fill="#6FB1D8"/>
<rect x="100" y="100" width="100" height="100" fill="#6FB1D8" fill-opacity="0.5"/>
<rect y="200" width="100" height="100" fill="#6FB1D8"/>
<rect x="300" y="100" width="100" height="100" fill="#6FB1D8" fill-opacity="0.5"/>
<rect x="400" width="100" height="100" fill="#6FB1D8"/>
<rect y="713" width="100" height="100" fill="#6FB1D8"/>
<path d="M200 713H300V813H200V713Z" fill="#6FB1D8"/>
<rect x="500" y="710" width="100" height="100" fill="#6FB1D8"/>
<rect x="600" y="610" width="100" height="100" fill="#6FB1D8" fill-opacity="0.5"/>
<rect x="1240" y="100" width="100" height="100" fill="#6FB1D8"/>
<rect x="1140" width="100" height="100" fill="#6FB1D8" fill-opacity="0.5"/>
<path d="M840 0H940V100H840V0Z" fill="#6FB1D8"/>
<rect x="940" y="100" width="100" height="100" fill="#6FB1D8" fill-opacity="0.5"/>
<rect x="1340" y="200" width="100" height="100" fill="#6FB1D8" fill-opacity="0.5"/>
<rect x="1340" y="710" width="100" height="100" fill="#6FB1D8"/>
<rect x="1040" y="610" width="100" height="100" fill="#6FB1D8" fill-opacity="0.5"/>
<rect x="1140" y="510" width="100" height="100" fill="#6FB1D8" fill-opacity="0.5"/>
<rect x="1240" y="610" width="100" height="100" fill="#6FB1D8"/>
<rect x="1340" y="510" width="100" height="100" fill="#6FB1D8"/>
<rect x="1340" width="100" height="100" fill="#6FB1D8"/>
<rect y="513" width="100" height="100" fill="#6FB1D8"/>
<rect x="100" y="613" width="100" height="100" fill="#6FB1D8" fill-opacity="0.5"/>
</g>
</svg>
